<svg xmlns="http://www.w3.org/2000/svg" width="53" height="53" viewBox="0 0 53 53">
    <defs>
        <filter id="prefix__Ellipse_2251" width="53" height="53" x="0" y="0" filterUnits="userSpaceOnUse">
            <feOffset/>
            <feGaussianBlur result="blur" stdDeviation="3"/>
            <feFlood flood-opacity=".4"/>
            <feComposite in2="blur" operator="in"/>
            <feComposite in="SourceGraphic"/>
        </filter>
    </defs>
    <g id="prefix__Group_7686" data-name="Group 7686" transform="translate(-566 -261)">
        <g filter="url(#prefix__Ellipse_2251)" transform="translate(566 261)">
            <circle id="prefix__Ellipse_2251-2" cx="17.5" cy="17.5" r="17.5" fill="#222" data-name="Ellipse 2251" transform="translate(9 9)"/>
        </g>
        <path id="prefix__Path_15642" fill="#fff" d="M6.8 4.9H.476v-.73q.26-.02.51-.05a1.778 1.778 0 0 0 .43-.1.829.829 0 0 0 .45-.345 1.185 1.185 0 0 0 .13-.6v-5.814a1.167 1.167 0 0 0-.16-.615 1.324 1.324 0 0 0-.4-.425 2.125 2.125 0 0 0-.545-.23 3.556 3.556 0 0 0-.665-.14v-.73l4.9-.26.15.15v7.943a1.119 1.119 0 0 0 .15.6.909.909 0 0 0 .43.365 3.378 3.378 0 0 0 .44.16 3.019 3.019 0 0 0 .5.1zM5.338-8.741a1.692 1.692 0 0 1-.585 1.3 1.985 1.985 0 0 1-1.386.535 2 2 0 0 1-1.4-.535 1.692 1.692 0 0 1-.585-1.3 1.707 1.707 0 0 1 .585-1.3 1.987 1.987 0 0 1 1.4-.54 1.969 1.969 0 0 1 1.391.54 1.714 1.714 0 0 1 .58 1.3z" data-name="Path 15642" transform="translate(589.229 290.064)"/>
    </g>
</svg>
