<svg xmlns="http://www.w3.org/2000/svg" width="239" height="93" viewBox="0 0 239 93">
  <defs>
    <style>
      .cls-1 {
        fill: #fff;
      }

      .cls-2 {
        fill: #337cfa;
      }

      .cls-3, .cls-4, .cls-8 {
        fill: none;
      }

      .cls-3, .cls-4 {
        stroke: #337cfa;
      }

      .cls-3 {
        stroke-width: 2px;
        opacity: 0.26;
      }

      .cls-5 {
        fill: #e0e1e2;
      }

      .cls-6 {
        fill: #9aa4ad;
      }

      .cls-7 {
        stroke: none;
      }
    </style>
  </defs>
  <g id="Group_6671" data-name="Group 6671" transform="translate(-424.199 -413)">
    <g id="Group_6719" data-name="Group 6719" transform="translate(425.753 413)">
      <rect id="Rectangle_4356" data-name="Rectangle 4356" class="cls-1" width="57" height="29" rx="5" transform="translate(0.447 16)"/>
      <rect id="Rectangle_4359" data-name="Rectangle 4359" class="cls-1" width="57" height="29" rx="5" transform="translate(0.447 62)"/>
      <rect id="Rectangle_4355" data-name="Rectangle 4355" class="cls-2" width="26" height="6" rx="3" transform="translate(5.447 36)"/>
      <rect id="Rectangle_4362" data-name="Rectangle 4362" class="cls-2" width="26" height="7" rx="3.5" transform="translate(5.447 80)"/>
      <rect id="Rectangle_4429" data-name="Rectangle 4429" class="cls-2" width="39" height="5" rx="2.5" transform="translate(9.447)"/>
      <g id="Rectangle_4431" data-name="Rectangle 4431" class="cls-3" transform="translate(0.447 16)">
        <rect class="cls-7" width="57" height="29" rx="5"/>
        <rect class="cls-8" x="-1" y="-1" width="59" height="31" rx="6"/>
      </g>
      <g id="Rectangle_4432" data-name="Rectangle 4432" class="cls-3" transform="translate(0.447 62)">
        <rect class="cls-7" width="57" height="29" rx="5"/>
        <rect class="cls-8" x="-1" y="-1" width="59" height="31" rx="6"/>
      </g>
      <g id="Rectangle_4433" data-name="Rectangle 4433" class="cls-4" transform="translate(0.447 16)">
        <rect class="cls-7" width="57" height="29" rx="5"/>
        <rect class="cls-8" x="-0.5" y="-0.5" width="58" height="30" rx="5.5"/>
      </g>
      <g id="Rectangle_4434" data-name="Rectangle 4434" class="cls-4" transform="translate(0.447 62)">
        <rect class="cls-7" width="57" height="29" rx="5"/>
        <rect class="cls-8" x="-0.5" y="-0.5" width="58" height="30" rx="5.5"/>
      </g>
    </g>
    <g id="Group_7458" data-name="Group 7458" transform="translate(516.199 413)">
      <rect id="Rectangle_4314" data-name="Rectangle 4314" class="cls-5" width="57" height="29" rx="5" transform="translate(0 16)"/>
      <rect id="Rectangle_4471" data-name="Rectangle 4471" class="cls-5" width="57" height="29" rx="5" transform="translate(0 62)"/>
      <rect id="Rectangle_4315" data-name="Rectangle 4315" class="cls-6" width="27" height="6" rx="3" transform="translate(5 36)"/>
      <rect id="Rectangle_4472" data-name="Rectangle 4472" class="cls-6" width="27" height="6" rx="3" transform="translate(5 82)"/>
      <rect id="Rectangle_4321" data-name="Rectangle 4321" class="cls-6" width="40" height="5" rx="2.5" transform="translate(9)"/>
    </g>
    <g id="Group_7459" data-name="Group 7459" transform="translate(607.066 413)">
      <rect id="Rectangle_4358" data-name="Rectangle 4358" class="cls-5" width="56" height="29" rx="5" transform="translate(0.134 16)"/>
      <rect id="Rectangle_4357" data-name="Rectangle 4357" class="cls-6" width="26" height="6" rx="3" transform="translate(5.134 36)"/>
      <rect id="Rectangle_4430" data-name="Rectangle 4430" class="cls-6" width="39" height="5" rx="2.5" transform="translate(9.134)"/>
    </g>
  </g>
</svg>
