<svg xmlns="http://www.w3.org/2000/svg" width="59.654" height="46.18" viewBox="0 0 59.654 46.18">
  <g id="Group_7529" data-name="Group 7529" transform="translate(-114.498 -110.057)" style="isolation: isolate">
    <path id="Path_339" data-name="Path 339" d="M133.995,155.385l-18.849-22.9a3.629,3.629,0,0,1,.315-4.533h0a2.858,2.858,0,0,1,3.967-.231l15.089,12.68a1.643,1.643,0,0,0,2.334.094L168.1,111.043a3.484,3.484,0,0,1,4.988.135h0a3.875,3.875,0,0,1,.117,5.2l-35.87,39.1A2.136,2.136,0,0,1,133.995,155.385Z" transform="translate(0 0)" fill="#45d597"/>
  </g>
</svg>
