<svg xmlns="http://www.w3.org/2000/svg" width="30" height="30" viewBox="0 0 30 30">
  <defs>
    <style>
      .cls-1 {
        fill: #f4f4f4;
      }
    </style>
  </defs>
  <g id="profile" transform="translate(-169.268 -508.874)">
    <circle id="Ellipse_2235" data-name="Ellipse 2235" class="cls-1" cx="12.5" cy="12.5" r="12.5" transform="translate(169.268 508.874)"/>
    <path id="Path_15575" data-name="Path 15575" class="cls-1" d="M181.768,518.718a2.336,2.336,0,1,0-2.335-2.337v0A2.338,2.338,0,0,0,181.768,518.718Z"/>
    <path id="Path_15576" data-name="Path 15576" d="M181.768,520.69a4.31,4.31,0,1,0-4.31-4.31h0A4.313,4.313,0,0,0,181.768,520.69Zm0-6.646a2.336,2.336,0,1,1-2.335,2.337h0A2.339,2.339,0,0,1,181.768,514.044Z"/>
    <path id="Path_15577" data-name="Path 15577" d="M181.768,522.023c-4.132,0-7.609,3.543-8.632,8.335a12.5,12.5,0,0,0,1.76,1.409c.541-4.4,3.412-7.769,6.872-7.769s6.332,3.37,6.873,7.769a12.617,12.617,0,0,0,1.76-1.41C189.377,525.566,185.9,522.023,181.768,522.023Z"/>
  </g>
</svg>
