<svg xmlns="http://www.w3.org/2000/svg" width="19.744" height="19.133" viewBox="0 0 19.744 19.133">
  <defs>
    <style>
      .cls-1 {
        fill: none;
        stroke: #1d1d1d;
        stroke-width: 1.5px;
      }
    </style>
  </defs>
  <g id="Dashboard" transform="translate(-190.24 -449.671)">
    <g id="Path_15557" data-name="Path 15557" transform="translate(190.99 450.517)">
      <path id="Path_15564" data-name="Path 15564" class="cls-1" d="M208.41,457.673l-.011-.011-7.474-6.862a1.01,1.01,0,0,0-1.4,0l-7.692,6.922a3.138,3.138,0,0,0-.842,2.146v6.946a1.238,1.238,0,0,0,1.238,1.24h4.546a.165.165,0,0,0,.166-.164v-1.748a3.166,3.166,0,0,1,6.332,0h0v1.746a.166.166,0,0,0,.166.166h4.528a1.219,1.219,0,0,0,.863-.353,1.241,1.241,0,0,0,.366-.88l.038-6.992A3.161,3.161,0,0,0,208.41,457.673Z" transform="translate(-190.99 -450.517)"/>
    </g>
  </g>
</svg>
