<svg xmlns="http://www.w3.org/2000/svg" width="12.482" height="12.482" viewBox="0 0 12.482 12.482">
  <defs>
    <style>
      .cls-1 {
        fill: #575d64;
      }
    </style>
  </defs>
  <path id="Path_15466" data-name="Path 15466" class="cls-1" d="M13.426,1.321A.567.567,0,0,0,12.915,1H1.567a.567.567,0,0,0-.443.922L5.539,7.44v5.475a.567.567,0,0,0,.35.524.56.56,0,0,0,.217.043.567.567,0,0,0,.4-.166l2.27-2.27a.567.567,0,0,0,.166-.4V7.44l4.415-5.518a.567.567,0,0,0,.068-.6Z" transform="translate(-1 -1)"/>
</svg>
