<svg xmlns="http://www.w3.org/2000/svg" width="19.499" height="19.501" viewBox="0 0 19.499 19.501">
  <defs>
    <style>
      .cls-1 {
        stroke: rgba(0,0,0,0);
        stroke-miterlimit: 10;
      }
    </style>
  </defs>
  <path id="help_centre" data-name="help centre" class="cls-1" d="M8740-1882.749a9.261,9.261,0,0,1,9.249-9.252,9.26,9.26,0,0,1,9.25,9.252,9.259,9.259,0,0,1-9.25,9.25A9.26,9.26,0,0,1,8740-1882.749Zm1.5,0a7.758,7.758,0,0,0,7.75,7.748,7.758,7.758,0,0,0,7.751-7.748,7.76,7.76,0,0,0-7.751-7.75A7.76,7.76,0,0,0,8741.5-1882.749Zm7.7,4.2h-.009a.924.924,0,0,1-.935-.908v-.009a.922.922,0,0,1,.943-.9h.013a.922.922,0,0,1,.937.908v.013a.923.923,0,0,1-.921.9Zm-.119-2.576a.744.744,0,0,1-.677-.807v-.081a1.707,1.707,0,0,1,1.035-1.532c.745-.446.972-.734.972-1.266a.56.56,0,0,0-.007-.09.975.975,0,0,0-1.07-.87,1.118,1.118,0,0,0-1.132.794.756.756,0,0,1-.759.532.768.768,0,0,1-.1,0,.68.68,0,0,1-.638-.723,1.439,1.439,0,0,1,.172-.688,2.666,2.666,0,0,1,2.538-1.255c1.646,0,2.748.9,2.748,2.249a2.142,2.142,0,0,1-1.237,1.945c-.77.446-.943.695-1.019,1.18a.685.685,0,0,1-.719.615h-.045A.5.5,0,0,1,8749.081-1881.125Z" transform="translate(-8739.501 1892.501)"/>
</svg>
