<svg xmlns="http://www.w3.org/2000/svg" xmlns:xlink="http://www.w3.org/1999/xlink" width="53" height="53" viewBox="0 0 53 53">
  <defs>
    <style>
      .cls-1 {
        fill: #222;
      }

      .cls-2 {
        fill: #fff;
      }

      .cls-3 {
        filter: url(#Ellipse_2251);
      }
    </style>
    <filter id="Ellipse_2251" x="0" y="0" width="53" height="53" filterUnits="userSpaceOnUse">
      <feOffset input="SourceAlpha"/>
      <feGaussianBlur stdDeviation="3" result="blur"/>
      <feFlood flood-opacity="0.4"/>
      <feComposite operator="in" in2="blur"/>
      <feComposite in="SourceGraphic"/>
    </filter>
  </defs>
  <g id="Group_7686" data-name="Group 7686" transform="translate(-566 -261)">
    <g class="cls-3" transform="matrix(1, 0, 0, 1, 566, 261)">
      <circle id="Ellipse_2251-2" data-name="Ellipse 2251" class="cls-1" cx="17.5" cy="17.5" r="17.5" transform="translate(9 9)"/>
    </g>
    <path id="Path_15642" data-name="Path 15642" class="cls-2" d="M6.8,4.9H.476v-.73q.26-.02.51-.05a1.778,1.778,0,0,0,.43-.1.829.829,0,0,0,.45-.345,1.185,1.185,0,0,0,.13-.6V-2.739a1.167,1.167,0,0,0-.16-.615,1.324,1.324,0,0,0-.4-.425,2.125,2.125,0,0,0-.545-.23,3.556,3.556,0,0,0-.665-.14v-.73l4.9-.26.15.15V2.954a1.119,1.119,0,0,0,.15.6.909.909,0,0,0,.43.365,3.378,3.378,0,0,0,.44.16,3.019,3.019,0,0,0,.5.1ZM5.338-8.741a1.692,1.692,0,0,1-.585,1.3,1.985,1.985,0,0,1-1.386.535,2,2,0,0,1-1.4-.535,1.692,1.692,0,0,1-.585-1.3,1.707,1.707,0,0,1,.585-1.3,1.987,1.987,0,0,1,1.4-.54,1.969,1.969,0,0,1,1.391.54A1.714,1.714,0,0,1,5.338-8.741Z" transform="translate(589.229 290.064)"/>
  </g>
</svg>
