<svg xmlns="http://www.w3.org/2000/svg" width="16.48" height="20.58" viewBox="0 0 16.48 20.58">
  <defs>
    <style>
      .cls-1 {
        stroke: rgba(0,0,0,0);
        stroke-miterlimit: 10;
      }
    </style>
  </defs>
  <path id="inventory" class="cls-1" d="M8742.974-1872.419a2.975,2.975,0,0,1-2.973-2.975v-10.793a2.975,2.975,0,0,1,2.973-2.973h.494l.84-1.351a3.122,3.122,0,0,1,2.674-1.488h1.517a3.122,3.122,0,0,1,2.674,1.488l.84,1.351h.494a2.979,2.979,0,0,1,2.976,2.973v10.793a2.979,2.979,0,0,1-2.976,2.975Zm-1.475-13.768v10.793a1.477,1.477,0,0,0,1.475,1.474h9.532a1.473,1.473,0,0,0,1.475-1.474v-10.793a1.476,1.476,0,0,0-1.475-1.474h-9.532A1.48,1.48,0,0,0,8741.5-1886.187Zm8.748-2.973-.35-.56a1.636,1.636,0,0,0-1.4-.78h-1.517a1.639,1.639,0,0,0-1.4.78l-.345.56Zm-6.175,12.6a.611.611,0,0,1-.61-.611v-.562a.613.613,0,0,1,.61-.613h7.179a.613.613,0,0,1,.613.613v.563a.611.611,0,0,1-.613.611Zm0-3.619a.613.613,0,0,1-.61-.613v-.562a.611.611,0,0,1,.61-.611h7.179a.611.611,0,0,1,.613.611v.563a.613.613,0,0,1-.613.613Zm0-3.619a.613.613,0,0,1-.61-.613v-.562a.613.613,0,0,1,.61-.613h7.179a.613.613,0,0,1,.613.613v.563a.613.613,0,0,1-.613.613Z" transform="translate(-8739.501 1892.499)"/>
</svg>
