<svg xmlns="http://www.w3.org/2000/svg" width="14" height="14" viewBox="0 0 14 14">
  <g id="Group_7572" data-name="Group 7572" transform="translate(-35 -679)">
    <circle id="Ellipse_2250" data-name="Ellipse 2250" cx="7" cy="7" r="7" transform="translate(35 679)"/>
    <path id="text" d="M2.057-2.926a.776.776,0,0,0,.825-.857l.1-4.393c.006-.063.006-.14.006-.19a.857.857,0,0,0-.92-.933.864.864,0,0,0-.933.933c0,.051.006.127.006.19l.1,4.393A.768.768,0,0,0,2.057-2.926Zm0,3.085a1.007,1.007,0,0,0,1.035-1,1.007,1.007,0,0,0-1.035-1,1.007,1.007,0,0,0-1.035,1A1.007,1.007,0,0,0,2.057.159Z" transform="translate(39.978 690.5)" fill="#fff"/>
  </g>
</svg>
