<svg xmlns="http://www.w3.org/2000/svg" width="16.457" height="13.643" viewBox="0 0 16.457 13.643">
    <path id="Path_15682" fill="#333" d="M18.605-7.788a1.4 1.4 0 0 0-.4-.967l-5.454-5.435a1.3 1.3 0 0 0-.913-.419 1.228 1.228 0 0 0-1.3 1.246 1.3 1.3 0 0 0 .419.945l1.708 1.718 1.869 1.708L12.7-9.1H3.513a1.266 1.266 0 0 0-1.365 1.312 1.275 1.275 0 0 0 1.365 1.321H12.7l1.837-.107-1.872 1.708-1.708 1.719a1.271 1.271 0 0 0-.419.935 1.228 1.228 0 0 0 1.3 1.246 1.335 1.335 0 0 0 .913-.408l5.457-5.436a1.409 1.409 0 0 0 .397-.978z" data-name="Path 15682" transform="translate(-2.148 14.609)"/>
</svg>
