<svg xmlns="http://www.w3.org/2000/svg" width="72" height="72" viewBox="0 0 72 72">
    <g id="Group_7843" data-name="Group 7843" transform="translate(-944 -303)">
        <circle id="Ellipse_2254" cx="36" cy="36" r="36" fill="#fff" data-name="Ellipse 2254" transform="translate(944 303)"/>
        <g id="Group_7529" data-name="Group 7529" transform="translate(852.269 219.607)" style="isolation:isolate">
            <path id="Path_339" fill="#bcc2c7" d="M124.128 132.447l-9.311-11.314a1.793 1.793 0 0 1 .156-2.239 1.412 1.412 0 0 1 1.96-.114l7.453 6.263a.812.812 0 0 0 1.153.047l15.438-14.545a1.721 1.721 0 0 1 2.464.066 1.914 1.914 0 0 1 .058 2.567l-17.719 19.313a1.055 1.055 0 0 1-1.652-.044z" data-name="Path 339"/>
        </g>
    </g>
</svg>
