<svg xmlns="http://www.w3.org/2000/svg" width="15.099" height="15.097" viewBox="0 0 15.099 15.097">
  <path id="delete" d="M8742.737-1876.9a.988.988,0,0,1-.986-.987v-10.681h-1.494a.256.256,0,0,1-.257-.257v-.584a.255.255,0,0,1,.257-.255h4.409v-1.347a.988.988,0,0,1,.987-.987h3.79a.986.986,0,0,1,.984.987v1.347h4.412a.261.261,0,0,1,.259.255v.584a.256.256,0,0,1-.257.257h-1.494v10.681a.987.987,0,0,1-.984.987Zm.107-1.1h9.4v-10.571h-9.4Zm2.916-11.667h3.575v-1.239h-3.575Zm3.245,9.261a.255.255,0,0,1-.257-.255v-5.251a.254.254,0,0,1,.257-.255h.585a.252.252,0,0,1,.255.255v5.251a.254.254,0,0,1-.255.255Zm-3.5,0a.255.255,0,0,1-.255-.255v-5.251a.254.254,0,0,1,.255-.255h.584a.254.254,0,0,1,.258.255v5.251a.256.256,0,0,1-.258.255Z" transform="translate(-8740 1892)"/>
</svg>
